<svg width="20" height="20" viewBox="0 0 20 20" fill="none" xmlns="http://www.w3.org/2000/svg">
<path d="M6.66667 9.16683H6.675M10 9.16683H10.0083M13.3333 9.16683H13.3417M17.5 16.6668L14.7297 15.2817C14.5197 15.1767 14.4147 15.1242 14.3047 15.0872C14.207 15.0543 14.1064 15.0306 14.0043 15.0162C13.8893 15.0002 13.7719 15.0002 13.5372 15.0002H5.16667C4.23324 15.0002 3.76653 15.0002 3.41002 14.8185C3.09641 14.6587 2.84144 14.4037 2.68166 14.0902C2.5 13.7337 2.5 13.2669 2.5 12.3335V6.00016C2.5 5.06674 2.5 4.60003 2.68166 4.24351C2.84144 3.9299 3.09641 3.67494 3.41002 3.51515C3.76653 3.3335 4.23325 3.3335 5.16667 3.3335H14.8333C15.7667 3.3335 16.2335 3.3335 16.59 3.51515C16.9036 3.67494 17.1586 3.9299 17.3183 4.24351C17.5 4.60003 17.5 5.06675 17.5 6.00016V16.6668Z" stroke="#2D2D2D" stroke-width="1.66667" stroke-linecap="round" stroke-linejoin="round"/>
</svg>
