<svg width="20" height="20" viewBox="0 0 20 20" fill="none" xmlns="http://www.w3.org/2000/svg">
<path d="M17.083 3.84075C16.6268 3.28875 16.0538 2.8448 15.4054 2.5409C14.7569 2.23699 14.0492 2.08069 13.333 2.08325C12.1077 2.04615 10.9148 2.48008 9.99969 3.29575C9.08458 2.48008 7.89166 2.04615 6.66636 2.08325C5.95023 2.08069 5.24245 2.23699 4.594 2.5409C3.94555 2.8448 3.37258 3.28875 2.91636 3.84075C2.12219 4.80409 1.29136 6.54825 1.84219 9.39075C2.72136 13.9299 9.31386 17.6549 9.59219 17.8074C9.71626 17.8766 9.85597 17.9129 9.99802 17.9129C10.1401 17.9129 10.2798 17.8766 10.4039 17.8074C10.6839 17.6516 17.2764 13.9266 18.1539 9.39075C18.708 6.54825 17.8772 4.80409 17.083 3.84075ZM16.5214 9.07409C15.8997 12.2833 11.3814 15.2683 9.99969 16.1166C8.05302 14.9416 4.04802 11.9916 3.48219 9.07409C3.05469 6.86909 3.63969 5.58825 4.20636 4.90159C4.50603 4.54001 4.88201 4.24924 5.30732 4.05012C5.73263 3.85101 6.19674 3.74849 6.66636 3.74992C7.16793 3.7123 7.6707 3.8053 8.12563 4.01984C8.58057 4.23438 8.97215 4.56315 9.26219 4.97409C9.33371 5.1057 9.43923 5.21572 9.56773 5.29268C9.69624 5.36965 9.84303 5.41074 9.99282 5.41168C10.1426 5.41261 10.2899 5.37336 10.4194 5.29801C10.5488 5.22265 10.6557 5.11396 10.7289 4.98325C11.0183 4.56911 11.4108 4.23757 11.8674 4.02129C12.3241 3.80502 12.8292 3.71149 13.333 3.74992C13.8036 3.74763 14.2689 3.84973 14.6953 4.04888C15.1216 4.24802 15.4986 4.53925 15.7989 4.90159C16.3639 5.58825 16.9489 6.86909 16.5214 9.07409Z" fill="#2D2D2D"/>
</svg>
