<svg width="46" height="46" viewBox="0 0 46 46" fill="none" xmlns="http://www.w3.org/2000/svg">
<path d="M32.375 27.6872V22.0517C32.375 21.7152 32.375 21.547 32.3238 21.3984C32.2784 21.267 32.2045 21.1474 32.1073 21.0481C31.9973 20.9359 31.8468 20.8606 31.5458 20.7101L23 16.4372M8 18.3122V31.0746C8 31.7719 8 32.1206 8.10878 32.4259C8.20495 32.6958 8.36169 32.94 8.56696 33.1399C8.79915 33.366 9.11614 33.5113 9.75004 33.8018L21.75 39.3018C22.2099 39.5125 22.4398 39.6179 22.6793 39.6595C22.8915 39.6964 23.1085 39.6964 23.3207 39.6595C23.5602 39.6179 23.7902 39.5125 24.25 39.3018L36.25 33.8018C36.8839 33.5113 37.2008 33.366 37.433 33.1399C37.6383 32.94 37.795 32.6958 37.8912 32.4259C38 32.1206 38 31.7719 38 31.0746V18.3122M4.25 16.4372L22.3292 7.3976C22.5751 7.27462 22.6981 7.21313 22.8271 7.18893C22.9414 7.16749 23.0586 7.16749 23.1729 7.18893C23.3019 7.21313 23.4249 7.27462 23.6708 7.3976L41.75 16.4372L23.6708 25.4768C23.4249 25.5998 23.3019 25.6613 23.1729 25.6855C23.0586 25.7069 22.9414 25.7069 22.8271 25.6855C22.6981 25.6613 22.5751 25.5998 22.3292 25.4768L4.25 16.4372Z" stroke="#98BB3C" stroke-width="2.25" stroke-linecap="round" stroke-linejoin="round"/>
</svg>
