<svg width="60" height="68" viewBox="0 0 60 68" fill="none" xmlns="http://www.w3.org/2000/svg">
<g clip-path="url(#clip0_191_1422)">
<path d="M31.1599 59.3033C31.1599 57.031 31.1599 54.506 31.1599 51.981C31.1599 43.3722 31.1571 34.7607 31.1599 26.1519C31.1599 22.8741 32.4857 21.5344 35.7354 21.5316C41.4904 21.5259 47.2455 21.5259 53.0034 21.5316C54.8768 21.5344 55.1942 21.8518 55.1942 23.7448C55.197 34.6483 55.197 45.5518 55.1942 56.4553C55.1942 58.4523 54.9021 58.7472 52.9444 58.75C47.6106 58.7556 42.2741 58.705 36.9403 58.7753C35.0753 58.8005 33.2075 59.1067 31.1599 59.3033ZM43.2009 40.7685C45.3974 40.7685 47.5938 40.7629 49.7902 40.7713C50.6581 40.7741 51.5148 40.5803 51.5372 39.586C51.5625 38.4906 50.6834 38.3221 49.7509 38.3249C45.3581 38.3418 40.9652 38.339 36.5752 38.3277C35.7073 38.3249 34.8618 38.4626 34.8366 39.4877C34.8057 40.6112 35.7101 40.7685 36.6173 40.7685C38.8081 40.7685 41.0045 40.7685 43.2009 40.7685ZM43.156 28.7696C40.9624 28.7696 38.766 28.7837 36.5724 28.7612C35.7073 28.7528 34.8703 28.8567 34.8281 29.8959C34.786 30.9464 35.6146 31.1318 36.4825 31.1318C40.9652 31.129 45.4479 31.129 49.9307 31.1318C50.7564 31.1318 51.526 30.9239 51.5401 29.9858C51.5541 28.9663 50.7845 28.7472 49.8801 28.7584C47.6387 28.7893 45.3974 28.7696 43.156 28.7696ZM40.7068 50.3603C42.1982 50.3603 43.6925 50.3575 45.1839 50.3631C46.0406 50.3659 46.7427 50.0233 46.7427 49.1329C46.7427 48.2453 46.0518 47.8999 45.1895 47.9027C42.2516 47.9111 39.3137 47.9055 36.3757 47.9055C35.5359 47.9055 34.8253 48.2004 34.8225 49.1245C34.8197 50.0485 35.5331 50.3519 36.3701 50.3575C37.8138 50.3659 39.2603 50.3603 40.7068 50.3603Z" fill="#FFAC00"/>
<path d="M28.8175 59.2529C26.5874 59.0787 24.4893 58.8007 22.3883 58.7726C17.2428 58.7024 12.0944 58.7557 6.94598 58.7473C5.13996 58.7445 4.80573 58.4159 4.80573 56.6295C4.80011 45.6334 4.80011 34.6372 4.80573 23.6382C4.80573 21.9053 5.15963 21.5345 6.81958 21.5317C12.7628 21.5233 18.7061 21.5148 24.6494 21.5345C27.3092 21.5429 28.826 22.981 28.8316 25.5538C28.8512 36.7381 28.8372 47.9225 28.8344 59.104C28.8316 59.2444 28.8007 59.3821 28.8175 59.2529ZM16.7962 40.7687C18.9926 40.7687 21.189 40.7687 23.3854 40.7687C24.2899 40.7687 25.1971 40.6142 25.169 39.4907C25.1437 38.4655 24.2983 38.3251 23.4304 38.3279C19.0375 38.3391 14.6447 38.3419 10.2547 38.3251C9.32497 38.3223 8.44303 38.4852 8.4655 39.5834C8.48797 40.5805 9.34182 40.7743 10.2097 40.7715C12.4033 40.763 14.5998 40.7687 16.7962 40.7687ZM16.7906 28.7698C14.5969 28.7698 12.4005 28.7866 10.2069 28.7614C9.3362 28.7501 8.50201 28.8737 8.45988 29.8989C8.41775 30.9409 9.2407 31.1347 10.1142 31.1347C14.5969 31.1319 19.0797 31.1319 23.5624 31.1347C24.3825 31.1347 25.1549 30.9381 25.1718 29.986C25.1915 28.9495 24.4078 28.7529 23.5147 28.7614C21.2733 28.7866 19.0319 28.7698 16.7906 28.7698ZM14.3526 50.3605C15.844 50.3605 17.3383 50.3605 18.8297 50.3605C19.6751 50.3605 20.3829 50.0346 20.3829 49.1274C20.3801 48.223 19.6779 47.9028 18.8297 47.9028C15.8918 47.9056 12.951 47.9084 10.0131 47.9028C9.15644 47.9 8.45707 48.2371 8.45707 49.1302C8.45707 50.0234 9.16206 50.3633 10.0159 50.3633C11.4596 50.3576 12.9061 50.3605 14.3526 50.3605Z" fill="#FFAC00"/>
<path d="M57.5368 26.5313C59.413 26.1803 59.9888 26.5847 59.9916 28.2362C60.0028 39.3756 60.0028 50.5179 59.9916 61.6573C59.9888 63.1768 59.5619 63.5475 57.8963 63.5475C50.734 63.5532 43.5718 63.5672 36.4123 63.5335C35.331 63.5279 34.6513 63.7919 34.0446 64.803C32.1796 67.9123 27.7783 67.8814 25.9161 64.7525C25.3431 63.7891 24.6971 63.5307 23.6635 63.5363C16.5968 63.5672 9.52721 63.5532 2.46045 63.5532C0.272456 63.5532 0.00562657 63.2948 0.00562657 61.1742C9.12193e-06 50.2651 -0.0027996 39.3588 0.00281785 28.4525C0.00281785 26.6128 0.435362 26.242 2.46045 26.4696C2.46045 26.9892 2.46045 27.5341 2.46045 28.0761C2.46045 37.5781 2.46045 47.08 2.46045 56.5819C2.46045 59.885 3.64574 61.0899 6.90105 61.0899C12.7516 61.0927 18.6022 61.1152 24.4556 61.0759C26.2532 61.0646 27.5901 61.6517 28.531 63.2554C29.34 64.6345 30.6713 64.6064 31.5027 63.2021C32.4183 61.6545 33.7216 61.0702 35.4658 61.0787C41.4568 61.1096 47.4478 61.0955 53.4416 61.0899C56.2167 61.0871 57.5368 59.7501 57.5368 56.9414C57.5396 47.2991 57.5396 37.6567 57.5396 28.0143C57.5368 27.5088 57.5368 27.006 57.5368 26.5313Z" fill="#FFAC00"/>
<path d="M24.1016 7.13697C26.1604 4.64844 28.0282 2.39303 30.0083 0C31.9688 2.35652 33.8619 4.62597 35.7634 6.90947C35.637 7.02181 35.5752 7.12574 35.5134 7.12574C32.3227 7.1454 32.3957 7.09484 32.4126 10.5159C32.4238 12.9904 32.3564 15.4677 32.4407 17.9393C32.48 19.0769 32.2665 19.9054 31.1796 20.4391C30.7414 20.6526 30.4128 21.0851 30.0392 21.4137C29.3763 20.911 28.6798 20.5037 28.1574 19.9363C27.8316 19.5824 27.6181 18.9926 27.6097 18.5039C27.5619 15.5154 27.5872 12.5269 27.5844 9.53843C27.5816 7.29988 27.4524 7.17629 25.1857 7.19034C24.9161 7.19315 24.6493 7.16506 24.1016 7.13697Z" fill="#FFAC00"/>
<path d="M19.2115 13.184C18.2481 13.184 17.619 13.1615 16.9926 13.1896C16.1051 13.2317 15.6304 13.6671 15.6472 14.6136C15.6725 16.0601 15.6529 17.5094 15.6529 19.0823C14.0772 19.0823 12.5689 19.0823 10.8555 19.0823C10.8555 17.8577 10.8584 16.6135 10.8555 15.3692C10.8499 13.4199 10.5775 13.1615 8.66755 13.2374C8.29961 13.2514 7.93166 13.2402 7.25757 13.2402C9.31356 10.7404 11.2235 8.41759 13.2289 5.98242C15.1922 8.34456 17.0797 10.614 19.2115 13.184Z" fill="#FFAC00"/>
<path d="M46.7792 5.98242C48.7257 8.32209 50.5963 10.5691 52.6129 12.993C52.0821 13.0716 51.7507 13.1531 51.4192 13.1643C49.3127 13.2317 49.147 13.4003 49.1385 15.5546C49.1357 16.6275 49.1217 17.7004 49.1076 18.7734C49.1076 18.8576 49.0487 18.9419 48.9841 19.116C47.5432 19.116 46.0686 19.116 44.3469 19.116C44.3469 17.8577 44.3497 16.5741 44.3469 15.2877C44.344 13.3357 44.1531 13.1643 42.1476 13.2402C41.7965 13.2542 41.4454 13.243 40.8022 13.243C42.8554 10.7488 44.7429 8.45691 46.7792 5.98242Z" fill="#FFAC00"/>
</g>
<defs>
<clipPath id="clip0_191_1422">
<rect width="60" height="67.1173" fill="white"/>
</clipPath>
</defs>
</svg>
