<svg width="60" height="60" viewBox="0 0 60 60" fill="none" xmlns="http://www.w3.org/2000/svg">
<g clip-path="url(#clip0_191_1110)">
<path d="M57.5097 26.0086C55.4287 23.4036 52.6994 22.1681 49.7289 21.3371C53.2989 15.7568 53.1356 11.6117 49.2756 8.49741C46.1467 5.97283 41.4095 6.20921 38.4731 9.03839C35.1224 12.2648 35.1931 16.673 38.7363 21.3006C35.1834 22.3338 31.9472 23.8154 30.0099 27.4073C28.0751 23.9007 24.912 22.3289 21.1666 21.2982C23.5401 18.9661 24.5075 16.249 23.813 13.0884C23.3817 11.1243 22.3095 9.52088 20.6573 8.32683C17.2506 5.86561 12.7181 6.28475 9.81092 9.34299C6.68201 12.6352 6.83797 16.9679 10.3348 21.2884C7.37407 22.1852 4.59363 23.3354 2.40047 26.1402C1.76202 24.0591 1.11138 22.2631 0.663002 20.416C-0.506684 15.5862 -0.275183 10.9294 2.58324 6.63566C8.02227 -1.53021 21.308 -2.83149 27.2709 6.58692C28.192 8.04415 29.062 9.53306 29.9929 11.0683C30.9116 9.55743 31.7645 8.1002 32.671 6.67708C37.0597 -0.219189 44.4702 -1.14275 50.3771 1.06746C56.9639 3.53112 60.9311 10.4347 59.8101 17.4455C59.4616 19.6338 58.8378 21.7782 58.2944 23.9324C58.1311 24.5855 57.8192 25.202 57.5097 26.0086Z" fill="#FFAC00"/>
<path d="M30.7409 36.6016C30.7409 34.3548 30.6361 32.2835 30.7701 30.2268C30.9163 27.9849 32.0763 26.1159 33.9868 25.0583C35.9387 23.9788 38.1245 23.3111 40.2348 22.5386C40.5882 22.4094 41.1024 22.6141 41.5117 22.753C43.22 23.3379 44.9087 23.3038 46.6486 22.8505C47.4284 22.6482 48.3763 22.5093 49.0928 22.7701C51.013 23.467 52.9649 24.2127 54.6878 25.2849C56.5105 26.418 57.5364 28.2725 57.6022 30.4949C57.6607 32.476 57.6144 34.4596 57.6144 36.5236C54.7584 36.5236 51.9804 36.5236 49.066 36.5236C50.2283 34.7033 50.7839 32.727 49.9335 30.7532C49.4291 29.5811 48.5615 28.426 47.56 27.6389C45.4692 25.9965 42.2988 26.267 40.2373 27.9922C37.8613 29.9807 37.5275 32.6515 39.243 36.6041C37.7858 36.6041 36.3871 36.6041 34.9883 36.6041C33.6188 36.6016 32.2469 36.6016 30.7409 36.6016Z" fill="#FFAC00"/>
<path d="M10.8245 36.5332C8.02949 36.5332 5.25879 36.5332 2.48323 36.5332C2.48323 34.1231 2.28828 31.7594 2.54171 29.4444C2.7659 27.3731 4.13541 25.7331 5.95573 24.7949C7.8053 23.8421 9.83519 23.228 11.8139 22.5432C12.1746 22.419 12.6839 22.609 13.0933 22.7479C14.8453 23.3377 16.5731 23.3255 18.352 22.8162C19.0489 22.6163 19.8604 22.5944 20.5744 22.7309C22.8309 23.1622 24.9193 24.0175 26.6811 25.5503C28.4015 27.0465 29.308 28.901 29.2617 31.2135C29.2276 32.9534 29.2544 34.6958 29.2544 36.521C26.4009 36.521 23.6204 36.521 20.6865 36.521C21.8172 34.6592 22.4775 32.6756 21.515 30.6531C20.9789 29.5297 20.1601 28.4039 19.1805 27.6533C17.0458 26.0182 13.99 26.2448 11.9552 27.9238C9.46966 29.9707 9.12607 32.5148 10.8245 36.5332Z" fill="#FFAC00"/>
<path d="M23.021 38.105C27.668 38.105 32.3151 38.105 37.201 38.105C36.7623 38.4193 36.4894 38.6192 36.214 38.8117C34.2012 40.2129 33.1972 42.138 33.207 44.5919C33.2118 45.8493 33.2143 47.1067 33.207 48.3641C33.2021 49.1683 33.5652 49.5435 34.3937 49.5313C36.253 49.507 38.1123 49.524 40.2032 49.524C36.5918 52.9332 33.1363 56.1937 29.7442 59.3957C26.7152 56.4593 23.2939 53.1403 19.8726 49.8238C19.9018 49.7239 19.9335 49.6239 19.9627 49.524C21.6734 49.524 23.3841 49.5265 25.0947 49.524C26.6835 49.5216 26.7737 49.4339 26.781 47.8914C26.7859 46.9191 26.7542 45.9443 26.7883 44.972C26.8931 41.9528 25.5626 39.762 23.021 38.105Z" fill="#FFAC00"/>
<path d="M25.3215 48.0595C19.3634 48.0595 13.6027 48.0595 7.83953 48.0595C7.39846 48.0595 6.9574 48.0595 6.43104 48.0595C6.43104 46.3488 6.25315 44.6796 6.50171 43.0737C6.64304 42.1648 7.31074 41.1535 8.04423 40.554C9.95472 38.992 12.0675 37.9076 14.7261 38.6874C15.4937 38.9116 16.4343 38.7897 17.2384 38.5948C21.1861 37.6396 25.3141 40.8172 25.3215 44.8843C25.3239 45.8907 25.3215 46.8971 25.3215 48.0595Z" fill="#FFAC00"/>
<path d="M53.6522 48.011C47.2409 48.011 41.0391 48.011 34.696 48.011C34.7838 45.3914 33.9504 42.6036 36.358 40.6078C38.2563 39.0361 40.3471 37.9029 43.0227 38.6608C43.8318 38.8899 44.8114 38.7875 45.6521 38.5853C49.534 37.6446 53.6449 40.8004 53.6522 44.7968C53.6522 45.8446 53.6522 46.89 53.6522 48.011Z" fill="#FFAC00"/>
<path d="M15.8469 21.7392C12.1307 21.7563 9.06757 18.7614 9.03589 15.0793C9.00422 11.2973 11.9918 8.23178 15.7518 8.19035C19.4656 8.14892 22.5921 11.2632 22.575 14.9891C22.5604 18.6956 19.546 21.7222 15.8469 21.7392Z" fill="#FFAC00"/>
<path d="M50.9498 14.9675C50.9522 18.7275 47.8988 21.759 44.129 21.7395C40.4348 21.72 37.4155 18.6812 37.4107 14.9772C37.4058 11.2464 40.5371 8.13701 44.246 8.19062C47.9622 8.2418 50.9498 11.2635 50.9498 14.9675Z" fill="#FFAC00"/>
<path d="M15.83 28.0484C18.3862 28.0557 20.4648 30.1148 20.4795 32.654C20.4941 35.2395 18.3765 37.3498 15.7739 37.34C13.1933 37.3303 11.178 35.3102 11.1634 32.7174C11.1488 30.0539 13.1616 28.041 15.83 28.0484Z" fill="#FFAC00"/>
<path d="M44.1851 37.34C41.5899 37.34 39.4772 35.2127 39.5064 32.6272C39.5332 30.088 41.6167 28.0483 44.1827 28.0483C46.8462 28.0483 48.8493 30.0782 48.8225 32.7441C48.7957 35.3345 46.7706 37.34 44.1851 37.34Z" fill="#FFAC00"/>
</g>
<defs>
<clipPath id="clip0_191_1110">
<rect width="60" height="59.3957" fill="white"/>
</clipPath>
</defs>
</svg>
