<svg width="45" height="46" viewBox="0 0 45 46" fill="none" xmlns="http://www.w3.org/2000/svg">
<path d="M3.75 23C3.75 33.3553 12.1447 41.75 22.5 41.75C25.6066 41.75 28.125 39.2316 28.125 36.125V35.1875C28.125 34.3167 28.125 33.8813 28.1731 33.5158C28.5054 30.9917 30.4917 29.0054 33.0158 28.6731C33.3813 28.625 33.8167 28.625 34.6875 28.625H35.625C38.7316 28.625 41.25 26.1066 41.25 23C41.25 12.6447 32.8553 4.25 22.5 4.25C12.1447 4.25 3.75 12.6447 3.75 23Z" stroke="#98BB3C" stroke-width="2.25" stroke-linecap="round" stroke-linejoin="round"/>
<path d="M13.125 24.875C14.1605 24.875 15 24.0355 15 23C15 21.9645 14.1605 21.125 13.125 21.125C12.0895 21.125 11.25 21.9645 11.25 23C11.25 24.0355 12.0895 24.875 13.125 24.875Z" stroke="#98BB3C" stroke-width="2.25" stroke-linecap="round" stroke-linejoin="round"/>
<path d="M30 17.375C31.0355 17.375 31.875 16.5355 31.875 15.5C31.875 14.4645 31.0355 13.625 30 13.625C28.9645 13.625 28.125 14.4645 28.125 15.5C28.125 16.5355 28.9645 17.375 30 17.375Z" stroke="#98BB3C" stroke-width="2.25" stroke-linecap="round" stroke-linejoin="round"/>
<path d="M18.75 15.5C19.7855 15.5 20.625 14.6605 20.625 13.625C20.625 12.5895 19.7855 11.75 18.75 11.75C17.7145 11.75 16.875 12.5895 16.875 13.625C16.875 14.6605 17.7145 15.5 18.75 15.5Z" stroke="#98BB3C" stroke-width="2.25" stroke-linecap="round" stroke-linejoin="round"/>
</svg>
