<svg width="60" height="61" viewBox="0 0 60 61" fill="none" xmlns="http://www.w3.org/2000/svg">
<g clip-path="url(#clip0_191_1188)">
<path d="M60 30.1043C59.993 46.6268 46.512 60.0281 29.9051 60.0211C13.3474 60.0141 -0.016388 46.5073 1.5084e-05 29.7973C0.0164181 13.3287 13.5489 -0.0163879 30.2121 1.51051e-05C46.6245 0.0164182 60.007 13.5419 60 30.1043ZM4.15936 29.9567C4.11718 44.2601 15.5571 55.7774 29.8887 55.8594C44.2273 55.9414 55.7985 44.4382 55.8383 30.0645C55.8782 15.7563 44.4452 4.24606 30.1113 4.16405C15.7727 4.08203 4.20154 15.5829 4.15936 29.9567Z" fill="#FFAC00"/>
<path d="M30.0435 7.28274C42.5216 7.30149 52.7407 17.5628 52.7196 30.0549C52.6985 42.5376 42.4395 52.759 29.9545 52.7379C17.4765 52.7168 7.26204 42.4556 7.28079 29.9658C7.29953 17.4807 17.5538 7.26399 30.0435 7.28274ZM28.8953 10.1908C29.4062 11.9529 28.3704 12.1029 27.1496 12.3607C23.1238 13.2042 20.5274 15.9389 20.1572 19.5218C19.6815 24.1404 21.2843 26.9992 25.4624 28.8692C26.5848 29.3706 27.7659 29.7385 28.8555 30.1439C28.8555 34.2845 28.8555 38.3618 28.8555 42.5657C24.9773 41.776 23.8877 38.9242 23.3159 35.6038C22.2521 35.7889 21.2609 35.9553 20.272 36.1404C20.0119 36.1896 19.7612 36.2927 19.5245 36.3653C19.398 37.9705 20.0072 39.9529 20.9984 41.5956C22.791 44.5669 25.7295 45.4597 28.982 45.9494C28.982 47.2734 28.982 48.5059 28.982 49.8018C29.7834 49.8018 30.4583 49.8018 31.241 49.8018C31.241 49.1785 31.241 48.6372 31.241 48.0982C31.241 46.0736 31.241 46.0759 33.1718 45.6331C33.3991 45.5815 33.6264 45.5253 33.8514 45.462C37.4694 44.4427 40.279 41.066 40.5438 37.4175C40.8789 32.8176 39.1566 29.626 35.3792 27.9951C34.3482 27.5499 33.2492 27.2382 32.1548 26.9875C31.4401 26.8235 31.2175 26.5212 31.2246 25.7994C31.2597 22.636 31.2386 19.4725 31.2433 16.3091C31.2433 16.0513 31.2925 15.7912 31.3417 15.3085C32.1197 15.6553 32.8227 15.8733 33.4202 16.2529C34.9363 17.2206 35.4261 18.8375 35.8033 20.5481C37.2117 20.3302 38.5028 20.1287 39.794 19.9295C39.1074 15.7889 36.9469 13.2816 33.2609 12.4216C32.0002 12.1263 30.709 12.0724 31.2433 10.1908C30.4231 10.1908 29.7764 10.1908 28.8953 10.1908Z" fill="#FFAC00"/>
<path d="M31.2993 42.4371C31.2993 38.5191 31.2993 34.6667 31.2993 30.812C34.3011 30.9175 36.5459 33.2654 36.56 36.2742C36.5764 39.6322 34.362 42.3035 31.2993 42.4371Z" fill="#FFAC00"/>
<path d="M28.8881 26.116C25.5349 25.3873 23.6602 23.051 24.0281 20.1781C24.3702 17.4997 26.4698 15.4634 28.8881 15.5361C28.8881 19.0276 28.8881 22.5214 28.8881 26.116Z" fill="#FFAC00"/>
</g>
<defs>
<clipPath id="clip0_191_1188">
<rect width="60" height="60.0211" fill="white"/>
</clipPath>
</defs>
</svg>
