<svg width="60" height="60" viewBox="0 0 60 60" fill="none" xmlns="http://www.w3.org/2000/svg">
<g clip-path="url(#clip0_191_1266)">
<path d="M37.0511 29.7336C37.5486 29.8311 37.986 29.9861 38.4235 29.9911C40.7984 30.0161 43.1733 29.9936 45.5482 30.0086C46.2907 30.0136 46.9657 29.8586 46.9557 28.9912C46.9482 28.1237 46.2632 27.9887 45.5257 27.9937C43.1933 28.0087 40.8584 27.9837 38.526 28.0112C38.0485 28.0162 37.5736 28.1737 37.0736 28.2662C36.7486 27.0813 37.1386 26.2438 38.2985 25.4813C40.7834 23.8539 42.6658 21.639 43.7733 18.8441C44.0233 18.2141 44.3433 17.9766 45.0457 17.9866C47.8781 18.0316 50.713 18.0291 53.5454 17.9941C54.6378 17.9816 55.0503 18.4641 54.9978 19.5091C54.9578 20.2915 54.9903 21.0765 54.9903 22.004C56.2353 22.004 57.3902 22.0315 58.5402 21.9965C59.5251 21.9665 59.9976 22.3464 59.9976 23.3789C59.9851 33.796 59.9826 44.2105 59.9976 54.6276C60.0001 55.7726 59.4001 56.01 58.4102 56.0075C51.453 55.9875 44.4933 55.9975 37.5361 55.9975C37.0811 55.9975 36.6286 55.9975 36.0861 55.9975C36.0486 56.3225 36.0036 56.5925 35.9911 56.865C35.9036 58.8399 34.7212 59.9799 32.7138 59.9949C31.1313 60.0074 29.5464 59.9974 27.964 59.9974C25.0116 59.9974 24.1166 59.1474 23.9391 55.9975C23.5166 55.9975 23.0792 55.9975 22.6417 55.9975C15.6845 55.9975 8.72475 55.9975 1.76754 55.9975C0.135111 55.9975 -0.00488281 55.8551 -0.00488281 54.2001C0.000116979 44.073 0.000116979 33.9485 0.000116979 23.8239C0.000116979 22.114 0.115112 22.009 1.87504 22.0015C2.7925 21.999 3.70746 21.9915 4.62492 21.9815C4.69992 21.9815 4.77492 21.934 4.99991 21.8565C4.99991 21.0915 5.02741 20.2715 4.99241 19.4516C4.95241 18.4691 5.33489 17.9841 6.36985 17.9916C9.28723 18.0166 12.2021 17.9791 15.1195 18.0291C15.4545 18.0341 15.9545 18.3691 16.0869 18.6766C17.3794 21.679 19.3818 24.0664 22.1717 25.7538C23.2616 26.4138 22.9617 27.3612 22.9617 28.2162C22.2692 28.1387 21.6017 28.0112 20.9342 28.0037C18.7668 27.9762 16.6019 28.0012 14.4345 27.9887C13.692 27.9837 13.0196 28.1437 13.0346 29.0112C13.0496 29.8786 13.737 30.0061 14.4695 30.0036C16.8019 29.9911 19.1368 30.0136 21.4692 29.9861C21.9492 29.9811 22.4242 29.8236 22.9892 29.7211C22.8292 32.221 23.4041 34.5384 25.4341 36.2784C26.8165 37.4633 28.4364 38.0458 30.2589 37.9883C34.3337 37.8633 36.7361 34.9334 37.0511 29.7336ZM2.08503 24.0564C2.08503 34.0785 2.08503 44.0055 2.08503 54.0001C2.62751 54.0001 3.08249 54.0001 3.53497 54.0001C10.0747 54.0001 16.6144 54.0001 23.1542 54.0001C25.3516 54.0001 25.9115 54.5001 25.9815 56.6425C26.0115 57.5825 26.409 58.0125 27.349 58.0025C29.0989 57.985 30.8488 57.98 32.5963 58.005C33.6112 58.02 33.9937 57.5475 34.0087 56.56C34.0387 54.5751 34.6662 54.0001 36.6611 54.0001C43.2833 53.9976 49.908 54.0001 56.5303 54.0001C56.9777 54.0001 57.4227 54.0001 57.9202 54.0001C57.9202 43.9505 57.9202 34.021 57.9202 24.0839C56.9152 24.0839 55.9853 24.0839 54.9878 24.0839C54.9878 24.6239 54.9878 25.0788 54.9878 25.5313C54.9878 33.7785 54.9903 42.0281 54.9853 50.2753C54.9853 51.8277 54.8178 51.9927 53.2579 51.9927C37.761 51.9952 22.2667 51.9952 6.76983 51.9927C5.1374 51.9927 4.99741 51.8477 4.99491 50.1953C4.99241 41.9481 4.99491 33.6985 4.99491 25.4513C4.99491 25.0038 4.99491 24.5589 4.99491 24.0539C3.97495 24.0564 3.07499 24.0564 2.08503 24.0564ZM17.9969 34.001C19.2418 34.001 20.4993 34.0935 21.7292 33.951C22.1817 33.8985 22.5667 33.2885 22.9842 32.9335C22.5667 32.621 22.1592 32.0535 21.7342 32.0385C19.2443 31.9536 16.7494 31.9536 14.262 32.0385C13.8345 32.0535 13.4271 32.621 13.0121 32.936C13.4271 33.291 13.8145 33.901 14.267 33.951C15.4945 34.0935 16.7519 34.001 17.9969 34.001ZM41.9559 31.996C40.7509 31.996 39.536 31.9061 38.3485 32.041C37.8735 32.096 37.4536 32.6485 37.0111 32.9735C37.4411 33.316 37.8585 33.936 38.301 33.9535C40.7484 34.051 43.2008 34.0485 45.6482 33.956C46.1057 33.9385 46.5407 33.346 46.9857 33.021C46.5557 32.6785 46.1532 32.096 45.6932 32.0435C44.4583 31.906 43.2008 31.9985 41.9559 31.996ZM17.9969 35.9984C16.7519 35.9984 15.497 35.9184 14.2645 36.0409C13.822 36.0859 13.4271 36.6234 13.0121 36.9358C13.4271 37.2908 13.832 37.9358 14.262 37.9533C16.7494 38.0508 19.2443 38.0458 21.7342 37.9583C22.1617 37.9433 22.5692 37.3733 22.9842 37.0608C22.5667 36.7059 22.1817 36.0984 21.7292 36.0459C20.4993 35.9034 19.2418 35.9984 17.9969 35.9984ZM41.9259 38.0008C43.1708 38.0008 44.4283 38.0908 45.6582 37.9558C46.1282 37.9033 46.5432 37.3383 46.9832 37.0058C46.5482 36.6684 46.1257 36.0584 45.6782 36.0409C43.2308 35.9459 40.7784 35.9459 38.331 36.0409C37.8785 36.0584 37.4511 36.6584 37.0111 36.9883C37.4461 37.3258 37.851 37.8983 38.3185 37.9533C39.506 38.0933 40.7209 38.0008 41.9259 38.0008ZM18.0019 42.0006C19.2468 42.0006 20.5018 42.0831 21.7342 41.9581C22.1767 41.9131 22.5667 41.3707 22.9817 41.0557C22.5642 40.7032 22.1567 40.0607 21.7267 40.0432C19.2393 39.9457 16.7444 39.9507 14.2545 40.0382C13.8295 40.0532 13.4246 40.6257 13.0096 40.9407C13.4271 41.2932 13.817 41.9006 14.2695 41.9531C15.4995 42.0931 16.7544 42.0006 18.0019 42.0006ZM41.9959 42.0006C43.2408 42.0006 44.4958 42.0806 45.7282 41.9581C46.1707 41.9131 46.5657 41.3757 46.9807 41.0607C46.5632 40.7057 46.1582 40.0607 45.7307 40.0457C43.2433 39.9482 40.7484 39.9532 38.2585 40.0407C37.831 40.0557 37.4236 40.6257 37.0086 40.9382C37.4261 41.2932 37.811 41.9006 38.2635 41.9531C39.4935 42.0931 40.7509 42.0006 41.9959 42.0006Z" fill="#FFAC00"/>
<path d="M30.0314 1.11476e-05C35.7387 -0.00748854 40.8335 3.76985 42.4634 9.21213C44.1058 14.7044 42.0359 20.6441 37.2186 23.754C35.5937 24.804 34.8037 26.0314 34.9762 27.9538C35.0687 28.9863 35.0112 30.0338 34.9887 31.0737C34.9262 33.8661 32.6888 36.0285 29.9164 35.9935C27.219 35.961 25.0541 33.7886 25.0016 31.0387C24.9791 29.8313 24.9541 28.6238 25.0091 27.4189C25.0791 25.8864 24.4366 24.8415 23.1517 24.019C19.1819 21.4816 17.087 17.7993 17.0195 13.0995C16.9145 5.83727 22.7642 0.0100107 30.0314 1.11476e-05ZM34.9937 10.8471C34.8162 10.6796 34.4687 10.0921 34.1137 10.0871C33.7463 10.0821 33.3588 10.6296 33.0013 10.9596C32.6438 11.287 32.3538 11.822 31.9513 11.9195C31.7188 11.977 31.3214 11.347 30.9964 11.0296C30.6489 10.6896 30.2964 10.3521 29.9464 10.0146C29.6289 10.3446 29.3114 10.6721 28.994 11.0021C28.679 11.3295 28.299 11.9695 28.064 11.922C27.659 11.837 27.359 11.3095 26.989 10.9921C26.5991 10.6571 26.1841 10.3546 25.7791 10.0396C25.5291 10.5421 25.0191 11.0745 25.0766 11.5395C25.3016 13.362 27.3465 14.5044 29.024 13.7644C29.7214 13.457 30.2239 13.4295 30.9389 13.7519C32.7613 14.5644 34.9762 13.117 34.9937 10.8471ZM32.9338 30.0713C30.9314 30.0713 28.9965 30.0713 27.0815 30.0713C26.5616 32.1912 28.154 33.9461 29.9139 34.0036C31.5889 34.0586 33.3988 32.4562 32.9338 30.0713Z" fill="#FFAC00"/>
</g>
<defs>
<clipPath id="clip0_191_1266">
<rect width="60" height="60" fill="white"/>
</clipPath>
</defs>
</svg>
