<svg width="60" height="60" viewBox="0 0 60 60" fill="none" xmlns="http://www.w3.org/2000/svg">
<g clip-path="url(#clip0_191_1032)">
<path d="M30.0174 60C13.43 60.008 0.00535755 46.5967 1.6043e-06 30.0174C-0.00535434 13.4274 13.4006 0.00535755 29.9826 1.60462e-06C46.5753 -0.00535434 59.9946 13.3979 60 29.9826C60.0054 46.5726 46.5994 59.9946 30.0174 60ZM49.9763 32.1089C50.0004 31.651 50.0219 31.3859 50.0245 31.1207C50.0513 29.2569 50.0486 29.2569 48.158 29.2569C42.628 29.2569 37.098 29.2354 31.5706 29.2756C30.5717 29.2836 30.0576 29.0587 29.6023 28.0464C28.3169 25.1837 24.9373 23.9786 22.0397 25.1622C19.0859 26.3647 17.597 29.5809 18.5744 32.6445C19.4983 35.5314 22.6851 37.2212 25.7514 36.5008C28.1134 35.9464 29.439 34.3584 30.1727 32.1116C36.7873 32.1089 43.3296 32.1089 49.9763 32.1089ZM49.9656 19.2921C49.9924 18.8235 50.0192 18.5182 50.0245 18.2156C50.054 16.4026 50.054 16.4026 48.241 16.4026C44.4945 16.4026 40.748 16.3812 37.0016 16.4187C36.1821 16.4267 35.767 16.2098 35.4216 15.401C34.262 12.6802 31.6162 11.4403 28.6034 12.0643C25.8773 12.6293 24.0268 14.9752 24.0295 17.8648C24.0295 20.8587 25.8398 23.0413 28.8766 23.7054C31.5867 24.2973 34.3397 22.9395 35.4269 20.3151C35.7938 19.4287 36.2705 19.268 37.114 19.2761C41.3426 19.3109 45.5791 19.2921 49.9656 19.2921ZM41.6425 40.7454C41.3854 40.183 41.206 39.7251 40.9784 39.2966C39.6902 36.8864 36.8811 35.6331 34.3048 36.3106C31.4474 37.0632 29.6532 39.4546 29.7282 42.4137C29.7978 45.0757 31.726 47.3975 34.3156 47.9357C37.3738 48.5704 39.9795 47.3091 41.2006 44.4892C41.5032 43.7902 41.8487 43.5653 42.5744 43.584C44.2669 43.6322 45.9621 43.6001 47.6545 43.6001C50.1692 43.6001 50.1692 43.6001 49.979 41.0399C49.9737 40.965 49.8933 40.8927 49.8023 40.7454C47.1404 40.7454 44.4329 40.7454 41.6425 40.7454ZM9.97545 40.7641C9.97545 41.4925 10.0103 42.0683 9.96742 42.6387C9.9085 43.4314 10.2915 43.6108 11.0065 43.6081C16.1723 43.5867 21.3408 43.5947 26.5066 43.584C26.6726 43.584 26.8387 43.501 27.0234 43.4528C27.0234 42.545 27.0234 41.68 27.0234 40.7641C21.3408 40.7641 15.7465 40.7641 9.97545 40.7641ZM21.3622 16.4026C18.3147 16.4026 15.3368 16.4026 12.3589 16.4026C9.84156 16.4026 9.83888 16.4026 10.0156 18.952C10.021 19.0297 10.096 19.102 10.1656 19.2225C13.8665 19.2225 17.5889 19.2225 21.3595 19.2225C21.3622 18.2825 21.3622 17.4149 21.3622 16.4026ZM10.1736 32.0634C11.9491 32.0634 13.7862 32.0634 15.6072 32.0634C16.017 29.2569 16.017 29.2569 13.4515 29.2569C13.0953 29.2569 12.7391 29.2569 12.3856 29.2569C9.73979 29.2569 9.73979 29.2569 10.0317 31.8947C10.0344 31.9295 10.0853 31.9616 10.1736 32.0634Z" fill="#FFAC00"/>
<path d="M27.3743 30.7407C27.3663 32.5751 26.1049 33.8525 24.2946 33.8578C22.5191 33.8632 21.1882 32.5456 21.1694 30.7621C21.148 28.9009 22.4816 27.5646 24.3402 27.5887C26.1344 27.6074 27.3823 28.9036 27.3743 30.7407Z" fill="#FFAC00"/>
<path d="M29.9853 20.9765C28.1857 20.9712 26.8601 19.6617 26.8467 17.8808C26.836 16.0732 28.2473 14.6994 30.0817 14.7315C31.8385 14.7636 33.1855 16.1562 33.1507 17.9022C33.1159 19.6884 31.7849 20.9792 29.9853 20.9765Z" fill="#FFAC00"/>
<path d="M35.7589 39.0207C37.5424 39.0395 38.8386 40.3624 38.8332 42.1566C38.8279 44.0125 37.4782 45.3193 35.6116 45.2738C33.8254 45.2309 32.6016 43.9187 32.6284 42.0736C32.6551 40.2553 33.9379 39.002 35.7589 39.0207Z" fill="#FFAC00"/>
</g>
<defs>
<clipPath id="clip0_191_1032">
<rect width="60" height="60" fill="white"/>
</clipPath>
</defs>
</svg>
