<svg width="60" height="60" viewBox="0 0 60 60" fill="none" xmlns="http://www.w3.org/2000/svg">
<g clip-path="url(#clip0_191_1344)">
<path d="M23.5902 47.023C23.5902 45.6656 23.5795 44.2921 23.5929 42.9186C23.625 39.2774 26.447 36.418 29.9999 36.4126C33.5608 36.4073 36.3961 39.2613 36.4336 42.8945C36.447 44.2707 36.4363 45.6442 36.4363 47.0016C38.5782 47.2747 38.5782 47.2747 38.5782 49.4327C38.5782 52.4233 38.5541 55.4113 38.5916 58.4019C38.6049 59.5558 38.123 59.9869 36.9878 59.9815C32.3479 59.9521 27.7053 59.9467 23.0655 59.9842C21.8312 59.9949 21.4162 59.4782 21.4349 58.2948C21.4804 55.3068 21.4483 52.3162 21.451 49.3256C21.4483 47.2479 21.4483 47.2479 23.5902 47.023ZM32.1471 47.0659C32.1471 45.5291 32.2007 44.1127 32.131 42.6991C32.0748 41.5398 31.1244 40.7044 30.0293 40.6937C28.9396 40.683 27.9517 41.5157 27.8928 42.6589C27.8178 44.1074 27.874 45.5612 27.874 47.0659C29.3385 47.0659 30.6558 47.0659 32.1471 47.0659ZM30.6398 55.6362C31.1324 54.351 31.5153 53.2828 31.9543 52.2359C32.38 51.2212 32.1096 50.3885 31.3144 49.7379C30.4952 49.0686 29.5688 49.0605 28.7361 49.7085C27.9249 50.3403 27.6438 51.1757 28.0481 52.1931C28.4818 53.2854 28.8807 54.3939 29.3466 55.6362C29.692 55.6362 30.2997 55.6362 30.6398 55.6362Z" fill="#FFAC00"/>
<path d="M19.2984 29.9171C12.8459 29.9171 6.52998 29.9171 0.0614423 29.9171C0.109635 25.8609 -0.706964 21.7002 2.43627 18.2625C5.23413 15.2049 9.36532 14.1634 13.1565 15.6333C16.8647 17.0711 19.2823 20.6266 19.2984 24.6775C19.3037 26.3723 19.2984 28.067 19.2984 29.9171Z" fill="#FFAC00"/>
<path d="M40.6184 29.8742C40.7335 27.403 40.5916 24.9666 41.0066 22.6293C41.8714 17.7591 46.5327 14.4793 51.4029 15.0201C56.2302 15.5583 59.9571 19.6895 59.9919 24.5543C60.0053 26.2919 59.9946 28.0295 59.9946 29.8742C53.5983 29.8742 47.2503 29.8742 40.6184 29.8742Z" fill="#FFAC00"/>
<path d="M9.6223 12.8434C6.07478 12.8274 3.20195 9.88762 3.24212 6.31332C3.28228 2.83005 6.19526 -0.0159966 9.7053 6.76724e-05C13.2555 0.0161319 16.1283 2.95589 16.0855 6.53019C16.0427 10.0135 13.1297 12.8595 9.6223 12.8434Z" fill="#FFAC00"/>
<path d="M50.4041 12.8434C46.8405 12.8595 43.9275 9.9599 43.9356 6.39899C43.9436 2.90234 46.8191 0.0161307 50.3104 6.64895e-05C53.8767 -0.0159978 56.787 2.88092 56.7789 6.44183C56.7736 9.94116 53.9008 12.8274 50.4041 12.8434Z" fill="#FFAC00"/>
<path d="M32.1579 17.1272C28.3854 17.1272 24.7817 17.1299 21.1779 17.1272C19.3868 17.1245 19.3038 17.0228 19.3065 14.9077C19.3091 12.9826 19.4243 12.8541 21.2047 12.8514C24.8058 12.8488 28.4069 12.8514 32.1579 12.8514C32.1579 11.328 32.1338 9.91436 32.1739 8.50338C32.1846 8.14997 32.4069 7.80191 32.5327 7.45117C32.8808 7.58236 33.3172 7.61985 33.5581 7.85546C35.9142 10.1634 38.2355 12.5061 40.704 14.9746C40.2275 15.4619 39.7803 15.9277 39.3225 16.3829C37.4323 18.2758 35.5528 20.1794 33.6331 22.0429C33.3627 22.3053 32.8888 22.3615 32.5086 22.5114C32.3908 22.158 32.182 21.8046 32.1712 21.4458C32.1338 20.0723 32.1579 18.6935 32.1579 17.1272Z" fill="#FFAC00"/>
<path d="M8.63434 34.2734C9.78829 34.2975 10.7334 35.264 10.728 36.418C10.7227 37.5719 9.76955 38.5331 8.6156 38.5438C7.41078 38.5572 6.41479 37.5345 6.45763 36.3296C6.49779 35.1677 7.46968 34.2493 8.63434 34.2734Z" fill="#FFAC00"/>
<path d="M53.5661 36.3937C53.5742 37.5477 52.6317 38.5196 51.4778 38.5437C50.3265 38.5678 49.3385 37.6387 49.2957 36.4848C49.2502 35.2693 50.2328 34.2599 51.4483 34.2706C52.6049 34.284 53.5581 35.2371 53.5661 36.3937Z" fill="#FFAC00"/>
<path d="M8.61831 40.6989C9.77493 40.715 10.7254 41.6735 10.7281 42.8275C10.7334 43.9814 9.78564 44.9479 8.6317 44.9694C7.42688 44.9908 6.42286 43.976 6.45767 42.7712C6.48979 41.6066 7.45365 40.6829 8.61831 40.6989Z" fill="#FFAC00"/>
<path d="M51.4725 40.6987C52.6264 40.7228 53.5715 41.6893 53.5662 42.8433C53.5608 43.9972 52.6077 44.9584 51.4537 44.9691C50.2489 44.9825 49.2529 43.9598 49.2958 42.7549C49.3359 41.593 50.3078 40.6746 51.4725 40.6987Z" fill="#FFAC00"/>
<path d="M10.728 49.2478C10.736 50.4018 9.79091 51.371 8.63696 51.3951C7.48569 51.4192 6.50041 50.4874 6.45757 49.3362C6.41206 48.1206 7.39466 47.1113 8.61286 47.1246C9.76681 47.1354 10.72 48.0912 10.728 49.2478Z" fill="#FFAC00"/>
<path d="M17.1537 49.2559C17.1564 50.4098 16.2086 51.3764 15.0546 51.3951C13.9033 51.4139 12.9207 50.4795 12.8833 49.3282C12.8431 48.1127 13.8311 47.1086 15.0466 47.1247C16.2032 47.1408 17.151 48.1019 17.1537 49.2559Z" fill="#FFAC00"/>
<path d="M44.9689 47.1248C46.1256 47.106 47.1028 48.0351 47.1403 49.1944C47.1778 50.3457 46.2541 51.3443 45.1028 51.3979C43.898 51.4541 42.8672 50.4688 42.8672 49.2587C42.8699 48.0913 43.8043 47.1435 44.9689 47.1248Z" fill="#FFAC00"/>
<path d="M49.2957 49.1543C49.3519 47.995 50.3372 47.0847 51.4992 47.1248C52.704 47.165 53.6598 48.2306 53.5634 49.4274C53.4697 50.576 52.4416 51.4675 51.2957 51.3926C50.1444 51.3176 49.2395 50.3055 49.2957 49.1543Z" fill="#FFAC00"/>
</g>
<defs>
<clipPath id="clip0_191_1344">
<rect width="60" height="59.9813" fill="white"/>
</clipPath>
</defs>
</svg>
