<svg width="91" height="90" viewBox="0 0 91 90" fill="none" xmlns="http://www.w3.org/2000/svg">
<circle cx="45.5" cy="45" r="44.25" fill="white" stroke="#98BB3C" stroke-width="1.5"/>
<ellipse cx="45.875" cy="70.125" rx="22.125" ry="3.375" fill="url(#paint0_radial_341_1112)" fill-opacity="0.5"/>
<path d="M34.25 60.0259H39.1443C39.7824 60.0259 40.4167 60.1018 41.0353 60.2537L46.2067 61.5104C47.3288 61.7837 48.4977 61.8103 49.6315 61.5901L55.3493 60.4777C56.8598 60.1834 58.2492 59.4602 59.3381 58.4009L63.3835 54.4657C64.5388 53.3438 64.5388 51.5233 63.3835 50.3995C62.3434 49.3877 60.6964 49.2738 59.5196 50.1318L54.8049 53.5716C54.1297 54.0651 53.3081 54.3309 52.4631 54.3309H47.9103L50.8082 54.3308C52.4416 54.3308 53.7647 53.0437 53.7647 51.4548V50.8796C53.7647 49.5603 52.8417 48.4099 51.5264 48.091L47.0536 47.0032C46.3257 46.8267 45.5803 46.7375 44.8309 46.7375C43.0219 46.7375 39.7473 48.2353 39.7473 48.2353L34.25 50.5341M26.75 49.7375L26.75 60.6125C26.75 61.6626 26.75 62.1876 26.9544 62.5887C27.1341 62.9415 27.421 63.2283 27.7738 63.4081C28.1749 63.6125 28.6999 63.6125 29.75 63.6125H31.25C32.3001 63.6125 32.8251 63.6125 33.2262 63.4081C33.579 63.2283 33.8659 62.9415 34.0456 62.5887C34.25 62.1876 34.25 61.6626 34.25 60.6125V49.7375C34.25 48.6874 34.25 48.1623 34.0456 47.7612C33.8659 47.4084 33.579 47.1216 33.2262 46.9418C32.8251 46.7375 32.3001 46.7375 31.25 46.7375H29.75C28.6999 46.7375 28.1749 46.7375 27.7738 46.9418C27.421 47.1216 27.1341 47.4084 26.9544 47.7612C26.75 48.1623 26.75 48.6874 26.75 49.7375ZM55.2338 29.098C54.1148 26.7563 51.5348 25.5158 49.0258 26.7132C46.5168 27.9105 45.4479 30.7501 46.4984 33.2428C47.1476 34.7833 49.0076 37.775 50.3339 39.8357C50.824 40.5971 51.069 40.9778 51.4269 41.2005C51.7338 41.3915 52.1181 41.4945 52.4795 41.4825C52.9008 41.4686 53.3033 41.2614 54.1084 40.847C56.2873 39.7256 59.394 38.0648 60.7265 37.0552C62.8826 35.4217 63.4167 32.4192 61.8025 30.1367C60.1883 27.8542 57.3737 27.6296 55.2338 29.098Z" stroke="#98BB3C" stroke-width="2.25" stroke-linecap="round" stroke-linejoin="round"/>
<defs>
<radialGradient id="paint0_radial_341_1112" cx="0" cy="0" r="1" gradientUnits="userSpaceOnUse" gradientTransform="translate(45.875 70.125) scale(22.125 3.375)">
<stop stop-color="#E6EDD0"/>
<stop offset="1" stop-color="white"/>
</radialGradient>
</defs>
</svg>
