<svg width="60" height="56" viewBox="0 0 60 56" fill="none" xmlns="http://www.w3.org/2000/svg">
<g clip-path="url(#clip0_191_954)">
<path d="M34.1064 12.9762C34.1011 5.82859 39.9324 -0.00800173 47.0719 8.23464e-06C54.2008 0.0080182 60.0401 5.88733 59.9973 13.0189C59.9573 20.1424 54.2035 25.8829 47.0933 25.8962C39.8977 25.9069 34.1118 20.1504 34.1064 12.9762ZM47.0773 4.72589C46.8183 4.81133 46.602 4.86206 46.4044 4.95017C42.9201 6.49609 39.4331 8.03934 35.9621 9.61464C35.6871 9.74013 35.348 10.0926 35.348 10.3382C35.348 10.5919 35.6898 11.0217 35.9434 11.0725C38.2129 11.5264 38.5413 13.0643 38.2529 15C38.1995 15.3471 38.2663 15.7129 38.2423 16.0653C38.1835 16.9037 38.5493 17.2909 39.401 17.3042C42.0924 17.3469 44.2951 18.4843 46.052 20.4655C46.8156 21.3252 47.3549 21.2798 48.0785 20.4414C49.5523 18.7327 51.4454 17.6914 53.6775 17.3656C55.8535 17.0452 55.8615 17.0906 55.8615 14.8371C55.8615 14.6155 55.8989 14.3859 55.8562 14.1723C55.5358 12.597 56.1792 11.7026 57.7118 11.2727C58.1364 11.1526 58.4487 10.6399 58.8119 10.3088C58.4648 10.0098 58.1657 9.60663 57.7652 9.42507C54.5372 7.95658 51.2932 6.52546 48.0491 5.08901C47.7234 4.94483 47.3896 4.8407 47.0773 4.72589Z" fill="#FFAC00"/>
<path d="M18.2254 25.0444C18.2254 28.6756 18.2254 32.1305 18.2254 35.7003C12.5677 36.261 6.89928 36.6935 1.5059 38.9363C-0.499262 33.1959 -0.507272 27.5729 1.5059 21.8511C6.88059 24.0431 12.4956 24.5478 18.2254 25.0444Z" fill="#FFAC00"/>
<path d="M48.0253 38.9233C42.6213 36.7259 37.0463 36.2346 31.3779 35.7273C31.3779 32.2349 31.3779 28.7479 31.3779 25.1007C33.5914 24.8497 35.8635 24.5827 38.1357 24.3478C38.3226 24.3291 38.5522 24.4786 38.7257 24.6014C41.7188 26.7241 45.0536 27.5197 48.6821 27.2154C48.8557 27.202 49.0346 27.2314 49.3443 27.2447C49.8009 31.223 49.4885 35.0891 48.0253 38.9233Z" fill="#FFAC00"/>
<path d="M30.0107 47.2377C30.4379 43.7827 30.8438 40.4986 31.263 37.1211C36.7498 37.5777 42.2046 38.0342 47.654 40.261C46.6688 41.8924 45.777 43.3982 44.8452 44.8774C44.7251 45.067 44.41 45.1738 44.1617 45.2405C39.564 46.4954 34.8541 46.9173 30.0107 47.2377Z" fill="#FFAC00"/>
<path d="M19.5389 47.2351C14.6795 46.9174 9.97232 46.4955 5.38795 45.2192C5.07289 45.1311 4.71778 44.9095 4.5469 44.6425C3.67381 43.2728 2.8568 41.8684 1.91162 40.2931C7.30233 37.9836 12.8025 37.6445 18.3 37.0918C18.7139 40.4907 19.1144 43.7721 19.5389 47.2351Z" fill="#FFAC00"/>
<path d="M1.88525 20.5189C2.84645 18.9222 3.67682 17.5205 4.54189 16.1401C4.69408 15.8971 4.9771 15.6542 5.2441 15.5821C9.88721 14.3352 14.6264 13.8065 19.5285 13.5796C19.1147 16.9731 18.7169 20.2385 18.3057 23.6214C12.8162 23.245 7.38276 22.7216 1.88525 20.5189Z" fill="#FFAC00"/>
<path d="M29.9199 25.1514C29.9199 28.4862 29.9413 31.7142 29.8772 34.9395C29.8719 35.1879 29.2791 35.6257 28.9534 35.6337C26.1606 35.6898 23.3651 35.6871 20.5723 35.6391C20.2679 35.6337 19.7125 35.2359 19.7072 35.0116C19.6511 31.7409 19.6672 28.4702 19.6672 25.1514C23.1221 25.1514 26.3982 25.1514 29.9199 25.1514Z" fill="#FFAC00"/>
<path d="M29.9333 23.7231C26.3849 23.7231 23.1969 23.7231 19.79 23.7231C19.9048 22.2332 19.9663 20.7941 20.1371 19.3657C20.332 17.737 20.6605 16.1243 20.866 14.4956C20.9542 13.7934 21.2158 13.457 21.9474 13.465C23.8591 13.4863 25.7708 13.4436 27.6799 13.5077C28.0003 13.5184 28.5396 13.9002 28.5823 14.1699C29.0683 17.2777 29.4768 20.3989 29.9333 23.7231Z" fill="#FFAC00"/>
<path d="M29.8827 37.0754C29.4528 40.5517 29.047 43.8305 28.6224 47.2614C26.1821 47.2614 23.8885 47.2748 21.5977 47.2374C21.3788 47.2347 21.005 46.9277 20.9729 46.7194C20.5083 43.5768 20.0918 40.4263 19.6353 37.0728C23.1116 37.0754 26.3236 37.0754 29.8827 37.0754Z" fill="#FFAC00"/>
<path d="M6.74707 47.1948C11.0404 47.7181 15.4352 48.2521 19.8701 48.7915C20.5589 50.7112 21.2878 52.7404 22.0167 54.7723C19.1358 55.8696 9.11001 50.9114 6.74707 47.1948Z" fill="#FFAC00"/>
<path d="M22.0329 5.88752C21.3787 7.79389 20.7833 9.64152 20.0918 11.4544C19.9637 11.7909 19.475 12.1753 19.1173 12.2154C14.9788 12.6773 10.835 13.0778 6.854 13.4783C8.89922 10.0527 17.2963 5.77271 22.0329 5.88752Z" fill="#FFAC00"/>
<path d="M27.4902 55.015C28.1604 53.0339 28.7665 51.1436 29.4553 49.2826C29.5675 48.9809 30.0241 48.6445 30.3551 48.6071C34.5363 48.1238 38.7256 47.6939 42.9174 47.248C38.7523 51.6909 33.5992 54.3182 27.4902 55.015Z" fill="#FFAC00"/>
<path d="M30.0239 13.6089C30.3283 13.6089 30.5446 13.6089 30.7608 13.6089C32.6138 13.6089 32.5844 13.6142 32.9396 15.4805C33.4789 18.3321 34.7685 20.8232 36.9632 23.1541C34.8833 23.3357 33.0731 23.4932 31.2548 23.6534C30.8383 20.2491 30.4404 17.0051 30.0239 13.6089Z" fill="#FFAC00"/>
<path d="M28.4247 48.7061C27.549 50.7032 26.8842 52.5669 25.9363 54.273C25.2261 55.5546 24.2462 55.5065 23.5306 54.1582C22.6309 52.4681 21.9901 50.6418 21.165 48.7061C23.6882 48.7061 25.8402 48.7061 28.4247 48.7061Z" fill="#FFAC00"/>
<path d="M28.4005 12.0149C25.8293 12.0149 23.712 12.0149 21.1675 12.0149C22.0245 10.0525 22.6734 8.20218 23.6159 6.51742C24.3474 5.2118 25.2579 5.24651 26.0082 6.6082C26.9133 8.24757 27.5434 10.0391 28.4005 12.0149Z" fill="#FFAC00"/>
<path d="M32.6088 12.2155C29.7385 12.3997 29.7439 12.397 28.9349 9.79648C28.7239 9.12097 28.497 8.44814 28.23 7.79399C27.9817 7.18256 27.6693 6.59783 27.186 5.58057C29.5783 6.14126 31.6663 6.63254 33.7542 7.12115C33.3404 8.96611 32.9826 10.5494 32.6088 12.2155Z" fill="#FFAC00"/>
<path d="M37.623 10.3519C40.763 8.95278 43.6305 7.66585 46.5114 6.41095C46.7945 6.28813 47.2163 6.25609 47.4913 6.37357C50.4096 7.63648 53.3119 8.93943 56.4785 10.3465C53.918 11.5 51.5417 12.4505 49.2802 13.6279C47.7076 14.4476 46.3699 14.4263 44.8053 13.6146C42.5732 12.4531 40.2236 11.5186 37.623 10.3519ZM47.1042 12.1274C48.5166 12.106 49.5098 11.3825 49.5178 10.3705C49.5259 9.34527 48.3938 8.52825 47 8.55228C45.657 8.57631 44.5971 9.35862 44.5864 10.3412C44.573 11.3958 45.633 12.1488 47.1042 12.1274Z" fill="#FFAC00"/>
<path d="M54.4333 12.7947C54.4333 13.9001 54.4333 14.856 54.4333 15.8786C51.539 16.1456 49.1253 17.3337 47.0801 19.4377C45.091 17.526 42.8829 16.2203 40.1595 15.9427C39.9512 15.9213 39.6495 15.4914 39.6228 15.2298C39.5507 14.4848 39.5961 13.7266 39.5961 12.7627C41.3583 13.537 43.0778 14.1217 44.6211 15.0108C46.3459 16.0067 47.8491 15.94 49.5499 14.9841C51.0771 14.1324 52.7512 13.537 54.4333 12.7947Z" fill="#FFAC00"/>
</g>
<defs>
<clipPath id="clip0_191_954">
<rect width="60" height="55.202" fill="white"/>
</clipPath>
</defs>
</svg>
