<svg width="60" height="67" viewBox="0 0 60 67" fill="none" xmlns="http://www.w3.org/2000/svg">
<g clip-path="url(#clip0_191_876)">
<path d="M0 62.394C0 41.4728 0 20.777 0 0C15.962 0 31.8578 0 47.8678 0C47.8678 9.39875 47.8678 18.8185 47.8678 28.4215C47.2551 27.8658 46.7805 27.0638 46.1827 26.9587C42.5151 26.3159 39.9439 23.1469 36.0691 22.8526C33.0443 22.6213 30.2058 23.201 27.3312 23.7837C26.364 23.979 24.817 23.6816 24.787 25.2766C24.7599 26.7064 26.2168 26.6703 27.1329 26.9136C31.0078 27.9499 34.3449 29.8123 36.9522 32.8971C37.1444 33.1254 37.577 33.3807 37.5409 33.5429C37.0093 35.8738 39.3582 36.4866 40.2113 38.0966C39.8598 38.4691 39.5024 38.8746 39.1209 39.2531C32.2573 46.1197 25.3937 52.9832 18.5302 59.8468C18.2478 60.1292 17.8543 60.3665 17.7041 60.7059C16.9021 62.5352 15.3762 62.4361 13.7452 62.412C9.2005 62.3489 4.65582 62.394 0 62.394ZM22.7594 17.8783C22.7594 14.3579 22.7504 11.0088 22.7655 7.65657C22.7715 6.67735 22.5071 5.95044 21.3837 5.93242C19.8819 5.90839 18.368 5.82128 16.8841 5.98648C16.3975 6.04055 15.8688 6.73742 15.5865 7.26308C15.3792 7.65357 15.5414 8.2423 15.5414 8.74393C15.5414 11.7807 15.5414 14.8145 15.5414 17.8693C14.6673 17.8693 13.9855 17.8693 13.1444 17.8693C13.1444 15.971 13.1354 14.1327 13.1474 12.2944C13.1534 11.2431 12.6698 10.7174 11.6035 10.7234C10.3029 10.7324 8.99925 10.7594 7.69862 10.7144C6.41302 10.6693 5.88436 11.2401 5.9174 12.5136C5.96245 14.2949 5.92941 16.0791 5.92941 17.9474C4.98023 17.9474 4.19324 17.8063 3.49937 17.9985C3.04581 18.1247 2.43004 18.7314 2.42703 19.1279C2.42403 19.5244 3.03079 20.038 3.48736 20.2874C3.83579 20.4796 4.36746 20.3414 4.81802 20.3414C17.584 20.3414 30.3469 20.3414 43.1129 20.3414C43.4643 20.3414 43.8939 20.4676 44.1462 20.3114C44.6688 19.99 45.0984 19.5154 45.564 19.1069C45.0773 18.7164 44.6418 18.1577 44.0861 17.9805C43.4703 17.7822 42.7434 17.9354 41.9805 17.9354C41.9805 14.433 41.9414 11.1349 41.9985 7.8368C42.0225 6.40401 41.4518 5.81827 40.037 5.90538C39.0398 5.96546 38.0365 5.91439 37.0333 5.9174C34.8976 5.9204 34.7655 6.05857 34.7655 8.26033C34.7625 11.4473 34.7655 14.6373 34.7655 17.8243C33.8763 17.8243 33.1615 17.8243 32.3685 17.8243C32.3685 13.3156 32.3715 8.91815 32.3685 4.51765C32.3655 2.48411 32.1912 2.3189 30.1096 2.3159C29.1094 2.31289 28.1031 2.36396 27.1059 2.30388C25.7031 2.21677 25.1084 2.77847 25.1324 4.22328C25.1925 7.52741 25.1504 10.8315 25.1504 14.1357C25.1504 15.3702 25.1504 16.6048 25.1504 17.8783C24.2914 17.8783 23.6095 17.8783 22.7594 17.8783ZM19.5935 38.37C23.994 38.37 28.3915 38.364 32.792 38.373C33.7412 38.376 34.7655 38.3549 34.7204 37.0964C34.6783 35.958 33.6991 35.9519 32.81 35.9519C24.1111 35.961 15.4123 35.958 6.71339 35.9519C5.76721 35.9519 4.73992 35.964 4.78498 37.2255C4.82703 38.367 5.80626 38.373 6.69537 38.37C10.9937 38.364 15.2951 38.37 19.5935 38.37ZM16.5957 45.579C20.0441 45.579 23.4924 45.57 26.9407 45.585C27.8718 45.588 28.764 45.4468 28.7159 44.3024C28.6708 43.2661 27.8118 43.164 26.9437 43.164C20.1462 43.176 13.3517 43.176 6.55419 43.164C5.62303 43.164 4.73091 43.2991 4.77897 44.4466C4.82403 45.4829 5.6831 45.591 6.55119 45.585C9.90038 45.57 13.2466 45.579 16.5957 45.579ZM20.3745 31.161C22.6213 31.161 24.8741 31.236 27.1119 31.1069C27.6766 31.0738 28.5867 30.4551 28.6648 29.9925C28.83 28.9952 27.971 28.7429 27.0698 28.7459C22.5762 28.7579 18.0796 28.7129 13.586 28.803C13.0363 28.815 12.1111 29.4548 12.036 29.9174C11.8678 30.9176 12.7299 31.173 13.631 31.167C15.8809 31.1489 18.1277 31.161 20.3745 31.161ZM13.1504 52.788C15.3972 52.788 17.6501 52.8631 19.8909 52.7369C20.4586 52.7039 21.3777 52.1001 21.4588 51.6376C21.639 50.6433 20.786 50.373 19.8788 50.376C15.3852 50.388 10.8886 50.3429 6.39499 50.43C5.8393 50.4421 4.91114 51.0668 4.82703 51.5294C4.64681 52.5237 5.50288 52.8 6.40701 52.794C8.65682 52.776 10.9036 52.788 13.1504 52.788ZM7.14293 31.158C7.4403 31.158 7.80375 31.2661 8.02603 31.1369C8.5607 30.8245 9.02929 30.401 9.52491 30.0225C9.02628 29.599 8.58473 29.0283 8.00801 28.794C7.49737 28.5867 6.77947 28.6018 6.25081 28.791C5.69211 28.9892 5.24756 29.5089 4.75194 29.8874C5.25056 30.3109 5.72215 30.7795 6.26583 31.1369C6.47009 31.2751 6.84556 31.158 7.14293 31.158Z" fill="#FFAC00"/>
<path d="M29.9717 62.3127C35.7449 56.5395 41.464 50.8143 47.3364 44.939C47.5346 45.3325 47.9492 45.771 47.9522 46.2126C47.9972 51.5532 47.9822 56.8909 47.9822 62.3127C41.8786 62.3127 35.9101 62.3127 29.9717 62.3127Z" fill="#FFAC00"/>
<path d="M42.0287 39.7695C43.1731 40.92 44.2274 41.9773 45.3688 43.1247C45.0264 43.4942 44.708 43.8636 44.3656 44.2061C37.4329 51.1448 30.4973 58.0804 23.5586 65.0131C23.2402 65.3315 22.9338 65.6709 22.5704 65.9292C21.5491 66.6591 20.0202 66.536 19.2963 65.6319C18.4732 64.6016 18.5303 63.5142 19.2963 62.4629C19.4434 62.2616 19.6387 62.0964 19.8129 61.9222C26.9949 54.7372 34.1799 47.5553 41.3618 40.3733C41.5391 40.1961 41.7283 40.0399 42.0287 39.7695Z" fill="#FFAC00"/>
<path d="M40.6108 34.5042C42.1548 32.9993 43.7978 31.3983 45.3177 29.9175C48.5738 33.1766 51.914 36.5227 55.176 39.7878C53.7192 41.2356 52.0642 42.8787 50.5262 44.4076C47.3002 41.1876 43.951 37.8384 40.6108 34.5042Z" fill="#FFAC00"/>
<path d="M39.3734 31.5632C36.8623 29.6078 34.1078 27.4631 31.4585 25.3995C35.5015 24.5434 39.3043 25.6879 42.7947 28.5655C41.5751 29.6348 40.4037 30.6591 39.3734 31.5632Z" fill="#FFAC00"/>
<path d="M56.5728 42.4282C59.5526 45.7804 60.6549 49.9707 59.6217 54.0167C58.6965 52.5238 57.9125 50.8928 56.7861 49.5501C55.6777 48.2255 54.2209 47.1892 52.8662 45.9817C54.278 44.63 55.3864 43.5696 56.5728 42.4282Z" fill="#FFAC00"/>
<path d="M50.6465 30.8335C51.1541 30.8906 51.6888 30.7854 51.9531 31.0047C54.4402 33.0563 54.7346 33.5969 54.0317 34.3809C52.9864 33.2846 51.9351 32.1852 50.6465 30.8335Z" fill="#FFAC00"/>
<path d="M29.8785 17.9084C29.0765 17.9084 28.4307 17.9084 27.6768 17.9084C27.6768 13.5679 27.6768 9.25153 27.6768 4.83301C28.3676 4.83301 29.0795 4.83301 29.8785 4.83301C29.8785 9.15841 29.8785 13.4718 29.8785 17.9084Z" fill="#FFAC00"/>
<path d="M20.2695 17.8756C19.5096 17.8756 18.8307 17.8756 18.0527 17.8756C18.0527 14.7427 18.0527 11.6308 18.0527 8.42578C18.7766 8.42578 19.4885 8.42578 20.2695 8.42578C20.2695 11.5857 20.2695 14.6976 20.2695 17.8756Z" fill="#FFAC00"/>
<path d="M39.4843 17.9113C38.6943 17.9113 38.0455 17.9113 37.2886 17.9113C37.2886 14.7753 37.2886 11.6635 37.2886 8.44043C37.9674 8.44043 38.6793 8.44043 39.4843 8.44043C39.4843 11.5523 39.4843 14.6642 39.4843 17.9113Z" fill="#FFAC00"/>
<path d="M10.6362 17.8695C9.84922 17.8695 9.17037 17.8695 8.41943 17.8695C8.41943 16.2895 8.41943 14.7756 8.41943 13.2017C9.17638 13.2017 9.85523 13.2017 10.6362 13.2017C10.6362 14.7276 10.6362 16.2385 10.6362 17.8695Z" fill="#FFAC00"/>
</g>
<defs>
<clipPath id="clip0_191_876">
<rect width="60" height="66.404" fill="white"/>
</clipPath>
</defs>
</svg>
