<svg width="46" height="46" viewBox="0 0 46 46" fill="none" xmlns="http://www.w3.org/2000/svg">
<path d="M30.5 7.00205C33.2782 8.38271 35.1875 11.2496 35.1875 14.5625C35.1875 17.8754 33.2782 20.7423 30.5 22.1229M34.25 31.937C37.084 33.2194 39.636 35.3094 41.75 38M4.25 38C7.89967 33.3548 12.8547 30.5 18.3125 30.5C23.7703 30.5 28.7253 33.3548 32.375 38M26.75 14.5625C26.75 19.2224 22.9724 23 18.3125 23C13.6526 23 9.875 19.2224 9.875 14.5625C9.875 9.9026 13.6526 6.125 18.3125 6.125C22.9724 6.125 26.75 9.9026 26.75 14.5625Z" stroke="#98BB3C" stroke-width="2.25" stroke-linecap="round" stroke-linejoin="round"/>
</svg>
